<?xml version="1.0" encoding="utf-8"?>
<!-- Generator: Adobe Illustrator 17.1.0, SVG Export Plug-In . SVG Version: 6.00 Build 0)  -->
<!DOCTYPE svg PUBLIC "-//W3C//DTD SVG 1.1//EN" "http://www.w3.org/Graphics/SVG/1.1/DTD/svg11.dtd">
<svg version="1.1" id="Layer_1" xmlns="http://www.w3.org/2000/svg" xmlns:xlink="http://www.w3.org/1999/xlink" x="0px" y="0px"
	 viewBox="0 0 100 100" enable-background="new 0 0 100 100" xml:space="preserve">
<g>
	<path fill="#010101" d="M0,50c0-0.83,0-1.514,0-2.295c20.947-0.39,38.086-2.685,52.197-7.08c1.611,3.223,3.027,6.348,4.394,9.619
		c-1.269,0.342-2.539,0.683-3.809,1.123C37.06,56.934,23.731,67.822,13.184,83.935C4.981,75,0,63.086,0,50z M1.025,40.039
		c3.125-15.723,13.77-28.808,28.027-35.4c8.008,9.717,14.453,19.531,19.678,29.15C35.742,37.598,20.019,39.697,1.025,40.039z
		 M50,100c-11.67,0-22.559-4.053-31.006-10.742c11.67-18.408,25.928-27.93,40.381-31.983c5.322,14.16,8.35,27.344,10.303,38.672
		C63.525,98.633,56.934,100,50,100z M37.5,1.611C41.553,0.586,45.703,0,50,0c12.842,0,24.56,4.883,33.35,12.842
		c-6.738,7.764-15.43,13.769-26.416,18.164C51.758,21.289,45.361,11.328,37.5,1.611z M65.039,48.242
		c-1.367-3.467-2.978-6.933-4.639-10.498c11.572-4.639,20.947-11.133,28.272-19.434C95.703,26.856,99.902,37.842,100,49.756
		C87.598,46.973,75.928,46.435,65.039,48.242z M77.539,91.65c-1.953-10.742-4.834-22.998-9.716-36.084
		c10.986-1.611,21.875-0.488,31.591,1.953C97.315,71.777,89.111,84.033,77.539,91.65z"/>
</g>
</svg>
