<?xml version="1.0" encoding="utf-8"?>
<!-- Generator: Adobe Illustrator 17.1.0, SVG Export Plug-In . SVG Version: 6.00 Build 0)  -->
<!DOCTYPE svg PUBLIC "-//W3C//DTD SVG 1.1//EN" "http://www.w3.org/Graphics/SVG/1.1/DTD/svg11.dtd">
<svg version="1.1" id="Layer_1" xmlns="http://www.w3.org/2000/svg" xmlns:xlink="http://www.w3.org/1999/xlink" x="0px" y="0px"
	 viewBox="0 0 100 100" enable-background="new 0 0 100 100" xml:space="preserve">
<path fill="#010101" d="M50,0C22.386,0,0,22.386,0,50c0,27.614,22.386,50,50,50s50-22.386,50-50C100,22.386,77.614,0,50,0z
	 M81.79,49.137C81.567,49.653,81.053,50,80.534,50H74v29.104C74,79.843,73.309,80,72.572,80H59.293C58.556,80,58,79.843,58,79.104
	V57H42v22.104C42,79.843,41.444,80,40.707,80H27.431C26.694,80,26,79.843,26,79.104V50h-6.534c-0.516,0-1.032-0.347-1.255-0.863
	c-0.145-0.516-0.073-1.058,0.296-1.501L49.04,17.088c0.516-0.516,1.403-0.523,1.919-0.006l30.534,30.557
	C81.862,48.082,81.935,48.621,81.79,49.137z"/>
</svg>
